<?xml version="1.0" encoding="utf-8"?>
<!-- Generator: Adobe Illustrator 25.2.3, SVG Export Plug-In . SVG Version: 6.00 Build 0)  -->
<svg version="1.1" id="Layer_1" xmlns="http://www.w3.org/2000/svg" xmlns:xlink="http://www.w3.org/1999/xlink" x="0px" y="0px"
	 viewBox="0 0 73 72" style="enable-background:new 0 0 73 72;" xml:space="preserve">
<g>
	<g>
		<path d="M10,23c18,0,36,0,54,0c6.43,0,6.45-10,0-10c-18,0-36,0-54,0C3.57,13,3.55,23,10,23L10,23z"/>
	</g>
</g>
<g>
	<g>
		<path d="M10,41.5c18,0,36,0,54,0c6.43,0,6.45-10,0-10c-18,0-36,0-54,0C3.57,31.5,3.55,41.5,10,41.5L10,41.5z"/>
	</g>
</g>
<g>
	<g>
		<path d="M10,59.5c18,0,36,0,54,0c6.43,0,6.45-10,0-10c-18,0-36,0-54,0C3.57,49.5,3.55,59.5,10,59.5L10,59.5z"/>
	</g>
</g>
</svg>
