<?xml version="1.0" encoding="utf-8"?>
<!-- Generator: Adobe Illustrator 25.2.3, SVG Export Plug-In . SVG Version: 6.00 Build 0)  -->
<svg version="1.1"
	 id="svg2" inkscape:version="0.48.4 r9939" sodipodi:docname="Twitter_bird_logo_2012.svg" xmlns:cc="http://creativecommons.org/ns#" xmlns:dc="http://purl.org/dc/elements/1.1/" xmlns:inkscape="http://www.inkscape.org/namespaces/inkscape" xmlns:rdf="http://www.w3.org/1999/02/22-rdf-syntax-ns#" xmlns:sodipodi="http://sodipodi.sourceforge.net/DTD/sodipodi-0.dtd" xmlns:svg="http://www.w3.org/2000/svg"
	 xmlns="http://www.w3.org/2000/svg" xmlns:xlink="http://www.w3.org/1999/xlink" x="0px" y="0px" viewBox="0 0 359.65 361.25"
	 style="enable-background:new 0 0 359.65 361.25;" xml:space="preserve">
<style type="text/css">
	.st0{fill:#FFFFFF;}
	.st1{fill:#000507;}
</style>
<ellipse class="st0" cx="193.99" cy="195.43" rx="125.16" ry="110.35"/>
<sodipodi:namedview  bordercolor="#666666" borderopacity="1.0" fit-margin-bottom="0" fit-margin-left="0" fit-margin-right="0" fit-margin-top="0" id="base" inkscape:current-layer="layer1" inkscape:cx="101.29413" inkscape:cy="50.181142" inkscape:document-units="px" inkscape:pageopacity="0.0" inkscape:pageshadow="2" inkscape:window-height="962" inkscape:window-maximized="1" inkscape:window-width="1280" inkscape:window-x="-8" inkscape:window-y="-8" inkscape:zoom="3.7200571" pagecolor="#ffffff" showgrid="false">
	</sodipodi:namedview>
<path class="st1" d="M179.52,1.95C80.58,1.95,0.37,82.15,0.37,181.09s80.21,179.15,179.15,179.15s179.15-80.21,179.15-179.15
	S278.46,1.95,179.52,1.95z M257.51,161.69c0.07,1.51,0.1,3.03,0.1,4.55c0,46.5-35.39,100.11-100.11,100.11
	c-19.87,0-38.37-5.83-53.94-15.81c2.75,0.33,5.55,0.49,8.39,0.49c16.49,0,31.66-5.63,43.7-15.06c-15.4-0.28-28.39-10.46-32.87-24.43
	c2.15,0.41,4.35,0.63,6.62,0.63c3.21,0,6.32-0.43,9.27-1.23c-16.1-3.23-28.23-17.45-28.23-34.5c0-0.15,0-0.3,0-0.44
	c4.74,2.64,10.17,4.22,15.94,4.4c-9.44-6.31-15.65-17.08-15.65-29.29c0-6.45,1.74-12.49,4.76-17.69
	c17.35,21.29,43.28,35.3,72.52,36.76c-0.6-2.58-0.91-5.26-0.91-8.02c0-19.43,15.76-35.19,35.19-35.19
	c10.12,0,19.27,4.27,25.68,11.11c8.02-1.58,15.55-4.51,22.34-8.54c-2.63,8.22-8.21,15.11-15.47,19.47
	c7.12-0.85,13.9-2.74,20.21-5.54c0,0,0,0,0,0l0,0c0,0,0,0,0,0C270.35,150.53,264.39,156.73,257.51,161.69z"/>
</svg>
